<?xml version="1.0" encoding="UTF-8" standalone="no"?>
<svg
   xmlns:dc="http://purl.org/dc/elements/1.1/"
   xmlns:cc="http://creativecommons.org/ns#"
   xmlns:rdf="http://www.w3.org/1999/02/22-rdf-syntax-ns#"
   xmlns:svg="http://www.w3.org/2000/svg"
   xmlns="http://www.w3.org/2000/svg"
   xmlns:sodipodi="http://sodipodi.sourceforge.net/DTD/sodipodi-0.dtd"
   xmlns:inkscape="http://www.inkscape.org/namespaces/inkscape"
   width="287mm"
   height="66.448997mm"
   viewBox="0 0 287 66.448997"
   version="1.1"
   id="svg8"
   inkscape:version="1.0 (4035a4fb49, 2020-05-01)"
   sodipodi:docname="logo.svg">
  <defs
     id="defs2">
    <inkscape:path-effect
       effect="simplify"
       id="path-effect1155"
       is_visible="true"
       lpeversion="1"
       steps="1"
       threshold="0.000408163"
       smooth_angles="360"
       helper_size="0"
       simplify_individual_paths="false"
       simplify_just_coalesce="false" />
    <inkscape:path-effect
       only_selected="false"
       apply_with_weight="true"
       apply_no_weight="true"
       helper_size="0"
       steps="2"
       weight="33.333333"
       lpeversion="1"
       is_visible="true"
       id="path-effect1151"
       effect="bspline" />
    <inkscape:path-effect
       effect="bspline"
       id="path-effect1132"
       is_visible="true"
       lpeversion="1"
       weight="33.333333"
       steps="2"
       helper_size="0"
       apply_no_weight="true"
       apply_with_weight="true"
       only_selected="false" />
    <inkscape:path-effect
       only_selected="false"
       apply_with_weight="true"
       apply_no_weight="true"
       helper_size="0"
       steps="2"
       weight="33.333333"
       lpeversion="1"
       is_visible="true"
       id="path-effect1120"
       effect="bspline" />
    <inkscape:path-effect
       only_selected="false"
       apply_with_weight="true"
       apply_no_weight="true"
       helper_size="0"
       steps="2"
       weight="33.333333"
       lpeversion="1"
       is_visible="true"
       id="path-effect1118"
       effect="bspline" />
    <inkscape:path-effect
       only_selected="false"
       apply_with_weight="true"
       apply_no_weight="true"
       helper_size="0"
       steps="2"
       weight="33.333333"
       lpeversion="1"
       is_visible="true"
       id="path-effect1116"
       effect="bspline" />
    <inkscape:path-effect
       only_selected="false"
       apply_with_weight="true"
       apply_no_weight="true"
       helper_size="0"
       steps="2"
       weight="33.333333"
       lpeversion="1"
       is_visible="true"
       id="path-effect1114"
       effect="bspline" />
    <inkscape:path-effect
       effect="bspline"
       id="path-effect1071"
       is_visible="true"
       lpeversion="1"
       weight="33.333333"
       steps="2"
       helper_size="0"
       apply_no_weight="true"
       apply_with_weight="true"
       only_selected="false" />
    <inkscape:path-effect
       effect="bspline"
       id="path-effect1063"
       is_visible="true"
       lpeversion="1"
       weight="33.333333"
       steps="2"
       helper_size="0"
       apply_no_weight="true"
       apply_with_weight="true"
       only_selected="false" />
    <inkscape:path-effect
       effect="bspline"
       id="path-effect1051"
       is_visible="true"
       lpeversion="1"
       weight="33.333333"
       steps="2"
       helper_size="0"
       apply_no_weight="true"
       apply_with_weight="true"
       only_selected="false" />
    <inkscape:path-effect
       effect="simplify"
       id="path-effect1039"
       is_visible="true"
       lpeversion="1"
       steps="1"
       threshold="0.000408163"
       smooth_angles="360"
       helper_size="0"
       simplify_individual_paths="false"
       simplify_just_coalesce="false" />
    <inkscape:path-effect
       effect="simplify"
       id="path-effect1035"
       is_visible="true"
       lpeversion="1"
       steps="1"
       threshold="0.000408163"
       smooth_angles="360"
       helper_size="0"
       simplify_individual_paths="false"
       simplify_just_coalesce="false" />
    <inkscape:path-effect
       effect="bspline"
       id="path-effect156"
       is_visible="true"
       lpeversion="1"
       weight="33.333333"
       steps="2"
       helper_size="0"
       apply_no_weight="true"
       apply_with_weight="true"
       only_selected="false" />
    <inkscape:path-effect
       effect="bspline"
       id="path-effect144"
       is_visible="true"
       lpeversion="1"
       weight="33.333333"
       steps="2"
       helper_size="0"
       apply_no_weight="true"
       apply_with_weight="true"
       only_selected="false" />
    <inkscape:path-effect
       effect="bspline"
       id="path-effect132"
       is_visible="true"
       lpeversion="1"
       weight="33.333333"
       steps="2"
       helper_size="0"
       apply_no_weight="true"
       apply_with_weight="true"
       only_selected="false" />
    <inkscape:path-effect
       effect="simplify"
       id="path-effect43"
       is_visible="true"
       lpeversion="1"
       steps="1"
       threshold="0.000408163"
       smooth_angles="360"
       helper_size="0"
       simplify_individual_paths="false"
       simplify_just_coalesce="false" />
  </defs>
  <sodipodi:namedview
     inkscape:bbox-nodes="true"
     inkscape:snap-bbox="true"
     id="base"
     pagecolor="#ffffff"
     bordercolor="#666666"
     borderopacity="1.0"
     inkscape:pageopacity="0.0"
     inkscape:pageshadow="2"
     inkscape:zoom="2"
     inkscape:cx="852.68979"
     inkscape:cy="140.54074"
     inkscape:document-units="mm"
     inkscape:current-layer="layer1"
     inkscape:document-rotation="0"
     showgrid="false"
     inkscape:snap-smooth-nodes="true"
     inkscape:snap-midpoints="true"
     inkscape:snap-global="true"
     inkscape:window-width="1920"
     inkscape:window-height="1001"
     inkscape:window-x="-9"
     inkscape:window-y="-9"
     inkscape:window-maximized="1" />
  <metadata
     id="metadata5">
    <rdf:RDF>
      <cc:Work
         rdf:about="">
        <dc:format>image/svg+xml</dc:format>
        <dc:type
           rdf:resource="http://purl.org/dc/dcmitype/StillImage" />
        <dc:title></dc:title>
      </cc:Work>
    </rdf:RDF>
  </metadata>
  <g
     inkscape:label="Warstwa 1"
     inkscape:groupmode="layer"
     id="layer1">
    <path
       style="fill:none;stroke:#000000;stroke-width:0.264583px;stroke-linecap:butt;stroke-linejoin:miter;stroke-opacity:1"
       d="M 68.020093,120.67219 78.176336,118.4004"
       id="path126"
       sodipodi:insensitive="true" />
    <path
       style="fill:none;stroke:#000000;stroke-width:1.51861;stroke-linecap:round;stroke-linejoin:miter;stroke-miterlimit:4;stroke-dasharray:none;stroke-opacity:1;paint-order:normal"
       d="m 5.0073475,58.383031 c 2.5540605,-0.136481 5.1078735,-0.272949 7.2162365,-0.233844 2.108363,0.0391 3.771171,0.253723 5.637026,0.799936 1.865855,0.546212 3.934617,1.423884 5.7428,2.471054 1.808183,1.04717 3.355708,2.263678 4.902969,3.479978"
       id="path142"
       inkscape:path-effect="#path-effect144"
       inkscape:original-d="m 5.0073475,58.383031 c 2.5540754,-0.136203 5.1078885,-0.272671 7.6614365,-0.409403 1.663134,0.21489 3.325942,0.42951 4.988519,0.643867 2.069107,0.877969 4.137869,1.755642 6.206409,2.633065 1.547856,1.216819 3.09538,2.433329 4.642667,3.649595" />
    <path
       style="fill:none;stroke:#000000;stroke-width:1.51861;stroke-linecap:round;stroke-linejoin:miter;stroke-miterlimit:4;stroke-dasharray:none;stroke-opacity:1;paint-order:normal"
       d="M 5.0073475,58.383031 1.086135,25.326056"
       id="path146" />
    <path
       style="fill:none;stroke:#000000;stroke-width:1.51861;stroke-linecap:round;stroke-linejoin:miter;stroke-miterlimit:4;stroke-dasharray:none;stroke-opacity:1;paint-order:normal"
       d="M 28.506379,64.900155 V 29.031559"
       id="path148" />
    <path
       style="opacity:1;fill:none;stroke:#000000;stroke-width:1.51861;stroke-linecap:round;stroke-linejoin:miter;stroke-miterlimit:4;stroke-dasharray:none;stroke-opacity:1;paint-order:normal"
       d="m 1.0665824,25.323447 c 0.6709027,-0.266385 1.3263931,-0.52665 2.9812112,-1.025839 1.6548181,-0.499188 4.3011874,-1.234243 6.6698234,-1.719317 2.368636,-0.485073 4.459346,-0.720163 6.349702,-0.642149 1.890356,0.07801 3.580175,0.469025 5.125625,1.277191 1.54545,0.808167 2.946471,2.033261 3.976905,3.071622 1.030434,1.038361 1.690281,1.889884 2.349918,2.741135"
       id="path154"
       inkscape:path-effect="#path-effect156"
       inkscape:original-d="m 1.0665824,25.323447 c 0.6633904,-0.285305 1.3265183,-0.526335 1.9893865,-0.789895 2.6467288,-0.734822 5.2930991,-1.469874 7.9392631,-2.20521 2.091054,-0.234833 4.181764,-0.469922 6.272251,-0.705282 1.690147,0.391291 3.379966,0.782299 5.069554,1.173053 1.401338,1.225408 2.80236,2.450501 4.203145,3.675352 0.66014,0.851821 1.319987,1.703344 1.979585,2.554625" />
    <path
       style="fill:none;stroke:#000000;stroke-width:1.51861;stroke-linecap:round;stroke-linejoin:miter;stroke-miterlimit:4;stroke-dasharray:none;stroke-opacity:1"
       d="M 3.441802,11.297491 4.7846967,23.30879"
       id="path1055" />
    <path
       style="fill:none;stroke:#000000;stroke-width:1.50223;stroke-linecap:round;stroke-linejoin:miter;stroke-miterlimit:4;stroke-dasharray:none;stroke-opacity:1"
       d="m 3.4115434,11.310057 c 0.0054,-0.106114 0.010811,-0.212492 0.054077,-0.313376 0.043267,-0.100885 0.1244059,-0.196065 0.2218192,-0.277281 0.097413,-0.08122 0.2109987,-0.148396 0.3543893,-0.204382 0.1433906,-0.05599 0.3164754,-0.100774 0.7086816,-0.111942 0.3922062,-0.01117 1.0034133,0.01123 1.6416913,0.05323 0.638278,0.042 1.303576,0.103583 2.0311048,0.207172 0.7275289,0.103589 1.517231,0.249148 2.2636892,0.422723 0.746458,0.173574 1.449614,0.375118 1.973205,0.52969 0.523591,0.154573 0.867587,0.262158 1.418246,0.474322 0.55066,0.212165 1.307945,0.52886 1.946684,0.817867 0.63874,0.289006 1.158896,0.550281 1.522246,0.744277 0.363349,0.193997 0.569885,0.320677 1.013561,0.601757 0.443675,0.281079 1.124471,0.716537 1.832051,1.227242 0.707579,0.510706 1.441916,1.096592 2.092121,1.658757 0.650205,0.562166 1.216257,1.100549 1.80144,1.71814 0.585182,0.61759 1.189482,1.314322 1.598734,1.781458 0.409253,0.467136 0.623433,0.704656 0.910263,1.124311 0.286831,0.419655 0.646351,1.021373 0.990572,1.638953 0.344222,0.617579 0.673141,1.250971 0.799266,2.15355 0.126126,0.90258 0.04963,2.074354 -0.02684,3.245905"
       id="path1061"
       inkscape:path-effect="#path-effect1063"
       inkscape:original-d="m 3.4115434,11.310057 c 0.00556,-0.106106 0.01111,-0.212477 0.016235,-0.319116 0.081396,-0.0949 0.1625281,-0.190086 0.2434061,-0.285527 0.1138516,-0.06692 0.2274365,-0.134101 0.3407673,-0.201547 0.1733494,-0.04452 0.3464336,-0.08931 0.5192664,-0.134366 0.6114891,0.02267 1.2226964,0.04506 1.8336578,0.06719 0.6655819,0.06185 1.33088,0.123432 1.99593,0.184753 0.789991,0.14583 1.579693,0.29139 2.369152,0.436687 0.703445,0.201819 1.406602,0.40336 2.109515,0.604644 0.344266,0.107854 0.688262,0.215439 1.032003,0.32276 0.757574,0.316976 1.51486,0.63367 2.271906,0.950107 0.520433,0.261552 1.040591,0.522824 1.560497,0.783837 0.2068,0.126949 0.413335,0.25363 0.619614,0.380046 0.681075,0.435736 1.361869,0.871196 2.042421,1.306394 0.734623,0.586179 1.46896,1.172065 2.203059,1.757698 0.56633,0.538671 1.132383,1.077054 1.698191,1.615182 0.604588,0.697024 1.208885,1.393758 1.812932,2.090234 0.214454,0.237799 0.428631,0.475322 0.642557,0.712582 0.359804,0.602012 0.719315,1.203735 1.078591,1.805203 0.329194,0.633683 0.658111,1.267075 0.986778,1.900214 -0.07624,1.172088 -0.152723,2.343862 -0.22948,3.515395" />
    <path
       style="fill:none;stroke:#000000;stroke-width:1.52627;stroke-linecap:round;stroke-linejoin:miter;stroke-miterlimit:4;stroke-dasharray:none;stroke-opacity:1"
       d="m 7.815335,2.0909624 c 0.3052666,0.010673 0.6102432,0.021335 0.9768129,0.03733 0.3665697,0.015995 0.7947035,0.037316 1.1290152,0.058643 0.3343119,0.021327 0.5747709,0.042645 0.8856269,0.082631 0.310856,0.039986 0.69207,0.098614 1.167143,0.1785692 0.475072,0.079955 1.043965,0.1812221 1.604082,0.3118273 0.560117,0.1306052 1.111416,0.2905022 1.560092,0.4264236 0.448676,0.1359214 0.794707,0.2478495 1.214058,0.4051006 0.419351,0.157251 0.912001,0.3597877 1.363609,0.5516739 0.451607,0.1918862 0.862152,0.3731034 1.216981,0.5543479 0.354829,0.1812445 0.653937,0.36246 0.999975,0.5729981 0.346039,0.2105381 0.738985,0.4503839 1.15833,0.7302239 0.419344,0.27984 0.865076,0.5996341 1.354746,0.9856551 0.489671,0.386021 1.023265,0.8382168 1.484976,1.2603156 0.461712,0.4220987 0.851546,0.8140626 1.220634,1.2173464 0.369088,0.4032839 0.717437,0.8178483 1.049199,1.2512813 0.331762,0.433434 0.646942,0.88569 0.891624,1.239966 0.244682,0.354276 0.41886,0.610556 0.613759,0.942227 0.1949,0.331671 0.41055,0.738703 0.675961,1.288965 0.265411,0.550262 0.580591,1.243722 0.775483,1.726143 0.194892,0.482422 0.269537,0.75376 0.381513,1.157034 0.111976,0.403274 0.261272,0.938446 0.369075,1.462315 0.107803,0.523869 0.174158,1.036429 0.232218,1.481155 0.05806,0.444725 0.107825,0.821615 0.153441,1.232422 0.04561,0.410807 0.08709,0.855517 0.09538,1.221078 0.0083,0.36556 -0.01657,0.651988 -0.07049,0.979857 -0.05391,0.32787 -0.136855,0.69722 -0.199071,0.945958 -0.06222,0.248737 -0.103685,0.376848 -0.182486,0.625603 -0.0788,0.248754 -0.194921,0.618104 -0.310992,0.9873"
       id="path1069"
       inkscape:original-d="m 7.815335,2.0909624 c 0.305258,0.01092 0.610235,0.021569 0.914939,0.031988 0.428432,0.021569 0.856566,0.042888 1.284434,0.063966 0.240747,0.021569 0.481206,0.042888 0.721391,0.063956 0.381516,0.058882 0.76273,0.1175113 1.143677,0.1758906 0.569194,0.1015242 1.138087,0.2027912 1.706713,0.303808 0.551597,0.1601557 1.102896,0.3200533 1.653927,0.4796996 0.346319,0.1121856 0.69235,0.224112 1.038103,0.3357881 0.492948,0.2027982 0.985599,0.4053333 1.477978,0.607621 0.410837,0.1814745 0.82138,0.3626948 1.23165,0.5436589 0.299399,0.1814765 0.598506,0.3626937 0.897343,0.5436578 0.393241,0.24011 0.786189,0.4799538 1.178863,0.7195514 0.446026,0.3200573 0.891758,0.6398514 1.337218,0.9593982 0.533897,0.4524716 1.06749,0.904668 1.600824,1.356624 0.390106,0.392223 0.779948,0.784179 1.169499,1.175888 0.348651,0.414839 0.696997,0.829406 1.045079,1.243728 0.315474,0.452528 0.630656,0.904783 0.94556,1.356796 0.174458,0.256541 0.348638,0.51282 0.52254,0.768849 0.21594,0.407301 0.431589,0.814333 0.64696,1.221115 0.315473,0.693741 0.630655,1.3872 0.94556,2.08042 0.07499,0.271617 0.149584,0.54297 0.223953,0.814077 0.149571,0.535443 0.298878,1.070612 0.447893,1.605541 0.06666,0.51283 0.133045,1.025386 0.199067,1.5377 0.05,0.377149 0.09985,0.754028 0.149293,1.130662 0.0418,0.444989 0.08319,0.889708 0.124434,1.334181 -0.02458,0.286693 -0.04944,0.573121 -0.07458,0.859303 -0.08263,0.36961 -0.165611,0.738952 -0.248827,1.108049 -0.04125,0.128398 -0.08263,0.256538 -0.124434,0.384423 -0.115823,0.369613 -0.231966,0.738955 -0.348359,1.10805"
       inkscape:path-effect="#path-effect1071" />
    <path
       inkscape:original-d="m 56.972306,58.500512 c -2.554065,-0.136199 -5.107879,-0.27267 -7.66143,-0.4094 -1.663138,0.214889 -3.325944,0.429507 -4.988527,0.643866 -2.069105,0.877971 -4.137862,1.755643 -6.206398,2.633064 -1.547857,1.216819 -3.09538,2.433329 -4.642681,3.649597"
       inkscape:path-effect="#path-effect1120"
       id="path142-4"
       d="m 56.972306,58.500512 c -2.55405,-0.136479 -5.107864,-0.272946 -7.216231,-0.233841 -2.108366,0.0391 -3.771172,0.253722 -5.637029,0.799935 -1.865857,0.546213 -3.934615,1.423883 -5.742796,2.471053 -1.808182,1.047169 -3.355708,2.263675 -4.90298,3.47998"
       style="fill:none;stroke:#000000;stroke-width:1.51861;stroke-linecap:round;stroke-linejoin:miter;stroke-miterlimit:4;stroke-dasharray:none;stroke-opacity:1;paint-order:normal" />
    <path
       id="path146-3"
       d="M 56.972306,58.500512 60.893519,25.443537"
       style="fill:none;stroke:#000000;stroke-width:1.51861;stroke-linecap:round;stroke-linejoin:miter;stroke-miterlimit:4;stroke-dasharray:none;stroke-opacity:1;paint-order:normal" />
    <path
       id="path148-0"
       d="M 33.47327,65.017639 V 29.14904"
       style="fill:none;stroke:#000000;stroke-width:1.51861;stroke-linecap:round;stroke-linejoin:miter;stroke-miterlimit:4;stroke-dasharray:none;stroke-opacity:1;paint-order:normal" />
    <path
       inkscape:original-d="m 60.913073,25.440927 c -0.663389,-0.285305 -1.326514,-0.526334 -1.989389,-0.789895 -2.646723,-0.734822 -5.293099,-1.469874 -7.939253,-2.20521 -2.091061,-0.234833 -4.181775,-0.469921 -6.272253,-0.705282 -1.690151,0.391291 -3.379968,0.782299 -5.069563,1.173053 -1.401327,1.225408 -2.802349,2.450502 -4.203135,3.675352 -0.660139,0.851821 -1.32,1.703343 -1.979598,2.554626"
       inkscape:path-effect="#path-effect1118"
       id="path154-1"
       d="m 60.913073,25.440927 c -0.670902,-0.266384 -1.326389,-0.526648 -2.981208,-1.025837 -1.654818,-0.499189 -4.301193,-1.234247 -6.669827,-1.71932 -2.368635,-0.485073 -4.459349,-0.720163 -6.349702,-0.642148 -1.890354,0.07802 -3.580171,0.469024 -5.12562,1.277189 -1.54545,0.808165 -2.94647,2.033261 -3.976905,3.071622 -1.030435,1.038361 -1.690289,1.889888 -2.349929,2.741138"
       style="opacity:1;fill:none;stroke:#000000;stroke-width:1.51861;stroke-linecap:round;stroke-linejoin:miter;stroke-miterlimit:4;stroke-dasharray:none;stroke-opacity:1;paint-order:normal" />
    <path
       id="path1055-1"
       d="m 58.537855,11.414971 -1.342887,12.0113"
       style="fill:none;stroke:#000000;stroke-width:1.51861;stroke-linecap:round;stroke-linejoin:miter;stroke-miterlimit:4;stroke-dasharray:none;stroke-opacity:1" />
    <path
       inkscape:original-d="m 58.568117,11.427538 c -0.0056,-0.106106 -0.01111,-0.212478 -0.01625,-0.319117 -0.08138,-0.0949 -0.162528,-0.190086 -0.24341,-0.285527 -0.11388,-0.06692 -0.22744,-0.134101 -0.340763,-0.201546 -0.173347,-0.04452 -0.346444,-0.08931 -0.519276,-0.134367 -0.611477,0.02267 -1.22269,0.04506 -1.833653,0.06719 -0.665583,0.06185 -1.330875,0.123433 -1.99593,0.184752 -0.78999,0.14583 -1.579688,0.291391 -2.369149,0.436688 -0.703442,0.201818 -1.406605,0.40336 -2.109518,0.604644 -0.344263,0.107855 -0.688262,0.215439 -1.031998,0.322761 -0.757575,0.316975 -1.514859,0.633669 -2.271907,0.950106 -0.520442,0.261553 -1.040593,0.522824 -1.560508,0.783838 -0.206789,0.126948 -0.413327,0.25363 -0.619601,0.380044 -0.681082,0.435737 -1.361873,0.871198 -2.042427,1.306396 -0.734619,0.586178 -1.46896,1.172065 -2.203052,1.757697 -0.566341,0.538671 -1.132391,1.077054 -1.698191,1.615182 -0.604589,0.697025 -1.208885,1.393758 -1.812946,2.090234 -0.21444,0.237799 -0.428631,0.475322 -0.642557,0.712582 -0.35979,0.602012 -0.719301,1.203736 -1.078577,1.805203 -0.329195,0.633683 -0.658111,1.267075 -0.986792,1.900214 0.07624,1.172088 0.152737,2.343862 0.22948,3.515394"
       inkscape:path-effect="#path-effect1116"
       id="path1061-1"
       d="m 58.568117,11.427538 c -0.0054,-0.106116 -0.01082,-0.212493 -0.05409,-0.313373 -0.04327,-0.10088 -0.124413,-0.196067 -0.221837,-0.27729 -0.09742,-0.08122 -0.210992,-0.148393 -0.354378,-0.204377 -0.143387,-0.05598 -0.316484,-0.100774 -0.708684,-0.111942 -0.3922,-0.01117 -1.003412,0.01123 -1.641692,0.05323 -0.638279,0.042 -1.303571,0.103582 -2.031102,0.207171 -0.727531,0.103589 -1.517229,0.249149 -2.263687,0.422723 -0.746457,0.173574 -1.449619,0.375119 -1.973209,0.529691 -0.523589,0.154573 -0.867587,0.26216 -1.418245,0.474324 -0.550658,0.212164 -1.307941,0.528858 -1.946686,0.817866 -0.638744,0.289008 -1.158895,0.550278 -1.522244,0.744274 -0.363349,0.193996 -0.569886,0.320679 -1.013562,0.60176 -0.443676,0.28108 -1.12447,0.716536 -1.832049,1.227241 -0.707579,0.510705 -1.441918,1.096595 -2.092123,1.658762 -0.650205,0.562166 -1.216256,1.100548 -1.801438,1.718136 -0.585182,0.617588 -1.189483,1.314317 -1.598737,1.781451 -0.409254,0.467135 -0.62344,0.704662 -0.910267,1.124315 -0.286826,0.419653 -0.646344,1.021374 -0.990565,1.638953 -0.344222,0.61758 -0.673144,1.250969 -0.799273,2.15355 -0.126129,0.902582 -0.04964,2.074357 0.02684,3.245906"
       style="fill:none;stroke:#000000;stroke-width:1.50223;stroke-linecap:round;stroke-linejoin:miter;stroke-miterlimit:4;stroke-dasharray:none;stroke-opacity:1" />
    <path
       inkscape:original-d="m 54.164318,2.2035003 c -0.305252,0.01092 -0.610227,0.021569 -0.914937,0.031988 -0.428437,0.021569 -0.856568,0.042888 -1.284435,0.063966 -0.240743,0.021569 -0.481209,0.042888 -0.721384,0.063956 -0.381524,0.058882 -0.762728,0.1175123 -1.143682,0.1758916 -0.569189,0.1015242 -1.138085,0.2027912 -1.706718,0.303808 -0.551593,0.1601557 -1.102894,0.3200533 -1.653918,0.4796996 -0.346318,0.1121856 -0.692359,0.224112 -1.038107,0.3357881 -0.492945,0.2027982 -0.985599,0.4053333 -1.477974,0.607621 C 43.812322,4.4476932 43.401787,4.6289134 42.991516,4.8098775 42.69211,4.991354 42.39301,5.1725702 42.09416,5.3535353 41.700929,5.5936443 41.307976,5.8334891 40.9153,6.0730867 40.469282,6.393144 40.023542,6.7129381 39.578079,7.0324849 39.044193,7.4849556 38.510599,7.937152 37.977268,8.389108 c -0.39012,0.392224 -0.779948,0.78418 -1.169499,1.175889 -0.348652,0.414838 -0.697011,0.829406 -1.045093,1.243728 -0.315474,0.452528 -0.630642,0.904783 -0.94556,1.356797 -0.174458,0.25654 -0.348638,0.512819 -0.52254,0.768848 -0.21594,0.407301 -0.431589,0.814333 -0.64696,1.221115 -0.315473,0.693741 -0.630655,1.3872 -0.94556,2.08042 -0.07485,0.271618 -0.14957,0.54297 -0.223939,0.814076 -0.149585,0.535444 -0.298878,1.070614 -0.447893,1.605541 -0.06666,0.512831 -0.133045,1.025386 -0.199067,1.537701 -0.05,0.377148 -0.09985,0.754028 -0.149293,1.130661 -0.0418,0.44499 -0.08319,0.889708 -0.124434,1.334182 0.02458,0.286693 0.04944,0.573121 0.07458,0.859304 0.08263,0.36961 0.165611,0.738951 0.248826,1.108049 0.04125,0.128397 0.08263,0.256537 0.124434,0.384422 0.115824,0.369613 0.231967,0.738955 0.34836,1.10805"
       inkscape:path-effect="#path-effect1114"
       id="path1069-7"
       d="m 54.164318,2.2035003 c -0.305261,0.010673 -0.610235,0.021335 -0.97681,0.03733 -0.366576,0.015995 -0.794706,0.037316 -1.129016,0.058643 -0.334309,0.021326 -0.574775,0.042646 -0.88563,0.082632 -0.310855,0.039986 -0.692059,0.098613 -1.167133,0.1785681 -0.475073,0.079955 -1.043969,0.1812223 -1.604088,0.3118278 -0.560118,0.1306055 -1.111419,0.2905039 -1.560091,0.4264244 -0.448672,0.1359205 -0.794712,0.2478512 -1.21406,0.405101 -0.419347,0.1572498 -0.912,0.359788 -1.363607,0.5516747 -0.451608,0.1918867 -0.862145,0.3731012 -1.216977,0.5543467 -0.354833,0.1812455 -0.653937,0.3624556 -0.999977,0.5729937 -0.34604,0.210538 -0.73899,0.4503868 -1.158332,0.7302253 -0.419343,0.2798386 -0.86508,0.599636 -1.354748,0.9856555 -0.489668,0.3860196 -1.02326,0.8382178 -1.484974,1.2603207 -0.461713,0.4221028 -0.85154,0.8140598 -1.220629,1.2173426 -0.369089,0.4032828 -0.717448,0.8178515 -1.049211,1.2512835 -0.331763,0.433433 -0.646938,0.885683 -0.891622,1.239962 -0.244684,0.354279 -0.418863,0.610559 -0.613762,0.94223 -0.1949,0.331671 -0.41055,0.738703 -0.675961,1.288965 -0.265411,0.550262 -0.580591,1.243722 -0.775476,1.726126 -0.194885,0.482405 -0.269535,0.753776 -0.381509,1.157052 -0.111975,0.403276 -0.261269,0.938446 -0.369072,1.462315 -0.107803,0.523868 -0.174158,1.036427 -0.232218,1.481153 -0.05806,0.444725 -0.107825,0.821616 -0.153441,1.232423 -0.04562,0.410807 -0.08709,0.855516 -0.09538,1.221077 -0.0083,0.365561 0.01657,0.651989 0.07048,0.979859 0.05391,0.32787 0.136854,0.69722 0.19907,0.945957 0.06222,0.248737 0.103685,0.376848 0.182486,0.625603 0.0788,0.248755 0.194921,0.618104 0.310993,0.9873"
       style="fill:none;stroke:#000000;stroke-width:1.52627;stroke-linecap:round;stroke-linejoin:miter;stroke-miterlimit:4;stroke-dasharray:none;stroke-opacity:1" />
    <path
       style="fill:#000000;stroke:#000000;stroke-width:2.31481;stroke-linecap:round;stroke-linejoin:miter;stroke-miterlimit:4;stroke-dasharray:none;stroke-opacity:1"
       d="m 29.328408,27.376446 c 0.478762,-1.246744 0.957835,-2.494302 1.595111,-2.482483 0.637275,0.01182 1.431873,1.282945 2.225958,2.553249"
       id="path1130"
       inkscape:path-effect="#path-effect1132"
       inkscape:original-d="m 29.328408,27.376446 c 0.479307,-1.246535 0.958392,-2.494088 1.437227,-3.742687 0.794864,1.272208 1.589464,2.543332 2.383842,3.813453" />
    <path
       inkscape:original-d="m 27.817381,64.723488 c 0.985848,-0.303172 1.971419,-0.606606 2.956725,-0.910305 1.182193,0.335231 2.364081,0.670185 3.545718,1.004881"
       inkscape:path-effect="#path-effect1151"
       id="path1130-3"
       d="m 27.817381,64.723488 c 0.98575,-0.303489 1.971321,-0.606923 3.055145,-0.591086 1.083823,0.01584 2.26571,0.350792 3.447298,0.685662"
       style="fill:#000000;stroke:#000000;stroke-width:1.51861;stroke-linecap:butt;stroke-linejoin:miter;stroke-miterlimit:4;stroke-dasharray:none;stroke-opacity:1" />
    <path
       id="path1055-3"
       d="M 7.708804,2.0618979 9.209703,10.685126"
       style="fill:none;stroke:#000000;stroke-width:1.36032;stroke-linecap:round;stroke-linejoin:miter;stroke-miterlimit:4;stroke-dasharray:none;stroke-opacity:1" />
    <path
       style="fill:none;stroke:#000000;stroke-width:1.36032;stroke-linecap:round;stroke-linejoin:miter;stroke-miterlimit:4;stroke-dasharray:none;stroke-opacity:1"
       d="M 52.76649,10.7906 54.267393,2.1673716"
       id="path1055-3-4" />
    <path
       style="fill:none;stroke:#000000;stroke-width:1.51861;stroke-linecap:butt;stroke-linejoin:miter;stroke-miterlimit:4;stroke-dasharray:none;stroke-opacity:1"
       d="m 28.556278,29.054354 h 4.853275 v 0.378308"
       id="path1187" />
    <path
       style="opacity:1;fill:#00ccff;stroke:#000000;stroke-width:0.542359;stroke-linecap:round;stroke-miterlimit:4;stroke-dasharray:none;stroke-opacity:1;paint-order:normal"
       d="m 34.288868,46.325884 v -16.95464 l 0.92359,-1.085955 c 1.58334,-1.861726 3.349567,-3.367255 4.919186,-4.193111 2.609059,-1.37277 5.89766,-1.579321 10.59735,-0.665605 2.752826,0.535207 9.292057,2.349234 9.28496,2.57571 -0.01389,0.425011 -3.752325,31.525247 -3.79528,31.568356 -0.03264,0.03272 -1.386134,0.01157 -3.007846,-0.04697 -5.354524,-0.193315 -7.770642,0.110828 -11.225603,1.413082 -2.2921,0.863953 -4.509595,2.070317 -6.541065,3.558482 -0.589589,0.431913 -1.090728,0.785294 -1.113643,0.785294 -0.02291,0 -0.04166,-7.629589 -0.04166,-16.95464 z"
       id="path1205" />
    <path
       style="opacity:1;fill:#00ccff;stroke:#000000;stroke-width:0.542359;stroke-linecap:round;stroke-miterlimit:4;stroke-dasharray:none;stroke-opacity:1;paint-order:normal"
       d="m 26.997547,62.708433 c -3.228702,-2.452977 -7.419696,-4.3755 -10.915553,-5.007247 -1.905999,-0.34444 -3.817757,-0.423429 -7.213071,-0.298028 -1.6864795,0.06229 -3.0879499,0.09155 -3.1143768,0.06503 -0.035608,-0.03573 -3.7738832,-31.193324 -3.787046,-31.564069 -0.00583,-0.163355 3.8455619,-1.313593 6.9147278,-2.065139 5.5977,-1.370704 9.172846,-1.451915 12.101777,-0.274897 1.842948,0.740605 4.022917,2.494501 5.921827,4.764401 l 0.786365,0.939993 V 46.22721 c 0,9.327304 -0.01486,16.958734 -0.03305,16.958734 -0.01819,0 -0.315891,-0.21488 -0.661584,-0.477512 z"
       id="path1207" />
    <path
       style="opacity:1;fill:#37c837;stroke:#000000;stroke-width:1.08472;stroke-linecap:round;stroke-miterlimit:4;stroke-dasharray:none;stroke-opacity:1;paint-order:normal"
       d="m 30.896416,63.396593 -1.460698,-0.06447 V 46.599924 29.867721 h 1.602061 1.602046 v 16.834734 c 0,9.259105 -0.06361,16.817608 -0.141363,16.796672 -0.07777,-0.02095 -0.798669,-0.06708 -1.602046,-0.102534 z"
       id="path1211" />
    <text
       transform="scale(0.99820643,1.0017968)"
       id="text60"
       y="49.29987"
       x="63.160767"
       style="font-size:38.77px;line-height:1.25;font-family:Ubuntu;-inkscape-font-specification:Ubuntu;stroke-width:0.264341"
       xml:space="preserve"><tspan
         style="font-size:38.77px;stroke-width:0.264341"
         y="49.29987"
         x="63.160767"
         id="tspan58"
         sodipodi:role="line"><tspan
           id="tspan62"
           style="fill:#0055d4;stroke-width:0.264341">T</tspan><tspan
           id="tspan913"
           style="fill:#ffffff;stroke-width:0.264341">ele</tspan><tspan
           id="tspan66"
           style="fill:#44aa00;stroke-width:0.264341">L</tspan><tspan
           id="tspan915"
           style="fill:#ffffff;stroke-width:0.264341">earn it</tspan></tspan></text>
    <path
       transform="matrix(1.0255069,0,0,1.0139581,-4.261025,-2.8329458)"
       inkscape:transform-center-x="-4.9106634e-06"
       inkscape:transform-center-y="-0.86413675"
       d="m 80.180608,30.057163 -5.904475,0 2.952238,-5.113426 z"
       inkscape:randomized="0"
       inkscape:rounded="0"
       inkscape:flatsided="true"
       sodipodi:arg2="1.5707963"
       sodipodi:arg1="0.52359878"
       sodipodi:r2="1.7044753"
       sodipodi:r1="3.4089506"
       sodipodi:cy="28.352688"
       sodipodi:cx="77.228371"
       sodipodi:sides="3"
       id="path911"
       style="fill:#00ccff;stroke:#000000;stroke-width:0;stroke-linecap:round;stroke-miterlimit:4;stroke-dasharray:none"
       sodipodi:type="star" />
    <path
       transform="matrix(-0.43338703,-0.37500499,0.25021613,-0.64952772,204.5679,134.8824)"
       inkscape:transform-center-y="1.873708e-06"
       inkscape:transform-center-x="-1.0060745"
       d="m 163.01635,53.565948 -13.92866,0 6.96433,-12.062574 z"
       inkscape:randomized="0"
       inkscape:rounded="0"
       inkscape:flatsided="true"
       sodipodi:arg2="1.5707963"
       sodipodi:arg1="0.52359878"
       sodipodi:r2="4.0208578"
       sodipodi:r1="8.0417156"
       sodipodi:cy="49.54509"
       sodipodi:cx="156.05202"
       sodipodi:sides="3"
       id="path921"
       style="fill:#2aff2a;stroke:#000000;stroke-width:0;stroke-linecap:round;stroke-miterlimit:4;stroke-dasharray:none"
       sodipodi:type="star" />
    <path
       id="path931"
       d="m 250.98659,41.464357 v 6.327909"
       style="fill:#37c871;fill-opacity:1;stroke:#44aa00;stroke-width:1.53592;stroke-linecap:butt;stroke-linejoin:miter;stroke-miterlimit:4;stroke-dasharray:none;stroke-opacity:1" />
    <path
       style="fill:#37c871;fill-opacity:1;stroke:#44aa00;stroke-width:1.66517;stroke-linecap:butt;stroke-linejoin:miter;stroke-miterlimit:4;stroke-dasharray:none;stroke-opacity:1"
       d="m 250.23344,48.484483 h 7.41109"
       id="path931-1" />
    <path
       style="fill:#0055d4;fill-opacity:1;stroke:#0055d4;stroke-width:1.51861;stroke-linecap:butt;stroke-linejoin:miter;stroke-miterlimit:4;stroke-dasharray:none;stroke-opacity:1"
       d="M 256.88658,47.6504 V 41.464357"
       id="path931-3" />
    <path
       id="path931-1-1"
       d="m 257.64453,42.29798 h -7.40277"
       style="fill:#0055d4;fill-opacity:1;stroke:#0055d4;stroke-width:1.66425;stroke-linecap:butt;stroke-linejoin:miter;stroke-miterlimit:4;stroke-dasharray:none;stroke-opacity:1" />
    <rect
       y="47.651192"
       x="250.22076"
       height="1.668237"
       width="1.5303428"
       id="rect966"
       style="fill:#2aff2a;fill-opacity:1;stroke:none;stroke-width:0.177461;stroke-linecap:square;stroke-linejoin:round;stroke-miterlimit:4;stroke-dasharray:none" />
    <rect
       style="fill:#00ccff;fill-opacity:1;stroke:none;stroke-width:0.177461;stroke-linecap:square;stroke-linejoin:round;stroke-miterlimit:4;stroke-dasharray:none"
       id="rect966-9"
       width="1.5303428"
       height="1.668237"
       x="256.1214"
       y="41.464359" />
    <path
       transform="scale(0.26458333)"
       id="path983"
       d="M 98.125914,93.975483 C 86.373202,83.297227 77.726173,80.033806 61.134602,80.014824 51.38424,80.003669 30.734729,83.255723 23.78976,85.896195 l -2.432635,0.924886 -2.45088,-22.04267 -2.450879,-22.042671 9.026797,0.576763 c 16.068652,1.026699 33.18221,7.028228 47.64563,16.708778 9.801764,6.560444 24.736318,22.227735 28.725477,30.134837 4.89664,9.70588 3.88847,10.738942 -3.727356,3.819365 z"
       style="fill:#ffffff;fill-opacity:1;stroke:none;stroke-width:5.74488;stroke-linecap:square;stroke-linejoin:round;stroke-miterlimit:4;stroke-dasharray:none" />
    <path
       transform="scale(0.26458333)"
       id="path985"
       d="M 107.06038,85.141774 C 102.59799,76.91055 87.045678,61.035255 76.50896,53.955873 67.345548,47.799184 54.693327,42.079097 44.449891,39.461923 L 37.39082,37.658349 35.612979,27.080652 c -0.977812,-5.817733 -2.009968,-11.765131 -2.293678,-13.21644 -0.509904,-2.608387 -0.46001,-2.63322 4.336911,-2.158506 16.308654,1.613938 32.796825,8.110027 45.182679,17.801292 17.864079,13.977677 28.833459,35.704875 27.962569,55.385816 l -0.2925,6.610141 z"
       style="fill:#ffffff;fill-opacity:1;stroke:none;stroke-width:5.74488;stroke-linecap:square;stroke-linejoin:round;stroke-miterlimit:4;stroke-dasharray:none" />
    <path
       transform="scale(0.26458333)"
       id="path987"
       d="m 123.34329,81.752955 c 0.69973,-10.177381 2.88785,-18.371755 7.13192,-26.708573 8.26106,-16.227569 23.91604,-30.192549 41.38931,-36.921219 12.24109,-4.713841 29.14444,-7.656262 29.14444,-5.073267 0,2.603251 -4.23172,24.512467 -4.82986,25.006046 -0.36858,0.304143 -3.82014,1.35173 -7.67014,2.327973 -9.94326,2.521309 -20.85393,7.457075 -30.06018,13.598609 -10.3769,6.922484 -27.01629,23.736624 -30.94308,31.268055 -1.64821,3.161193 -3.40211,5.748693 -3.89756,5.75 -0.51539,0.0014 -0.62871,-3.955406 -0.26485,-9.247624 z"
       style="fill:#ffffff;fill-opacity:1;stroke:none;stroke-width:5.74488;stroke-linecap:square;stroke-linejoin:round;stroke-miterlimit:4;stroke-dasharray:none" />
    <path
       transform="scale(0.26458333)"
       id="path989"
       d="m 129.49063,97.96283 c 1.31338,-6.201306 5.86815,-13.295073 14.01833,-21.832663 13.85057,-14.508947 25.79048,-22.269731 43.22669,-28.09678 8.27934,-2.766893 29.44574,-6.205578 30.64954,-4.979312 0.43335,0.441441 -4.13801,43.043995 -4.67652,43.582499 -0.15177,0.151774 -3.63379,-0.60419 -7.73783,-1.679919 -33.40507,-8.755969 -51.77986,-6.155277 -68.972,9.762012 l -7.24098,6.704043 z"
       style="fill:#ffffff;fill-opacity:1;stroke:none;stroke-width:5.74488;stroke-linecap:square;stroke-linejoin:round;stroke-miterlimit:4;stroke-dasharray:none" />
    <path
       transform="scale(0.26458333)"
       id="path991"
       d="m 114.15192,106.48161 c 0.45131,-0.48697 1.06451,-1.68752 1.26023,-2.46732 0.11721,-0.46702 0.15144,-0.47953 1.02473,-0.3746 0.4969,0.0597 1.50008,0.10955 2.22929,0.11076 l 1.32582,0.002 1.01426,1.59033 1.01426,1.59033 h -4.14361 -4.1436 z"
       style="fill:#ffffff;fill-opacity:1;stroke:none;stroke-width:1.01556;stroke-linecap:square;stroke-linejoin:round;stroke-miterlimit:4;stroke-dasharray:none" />
  </g>
</svg>
